# xmcd
#
# Track frame offsets: 
#        150
#        19680
#        30892
#        46091
#        76866
#        87411
#        101064
#        115030
#        127501
#        147687
#        161069
#        174446
#        187475
#        199621
#        214236
#        226332
#        238418
#        252410
#        263170
#        273853
#
# Disc length: 3807 seconds
#
# Revision: 0
# Processed by: cddbd v1.5.2PL0 Copyright (c) Steve Scherf et al.
# Submitted via: ExactAudioCopy v1.0b3
#
DISCID=120edd14
DTITLE=Folk and Country Music - Folk and Country Music - CD1
DYEAR=2015
DGENRE=Country
TTITLE0=01. Kenny Rogers - Coward of the Country
TTITLE1=02. Creedence - Green River
TTITLE2=03. James Taylor - Country Road
TTITLE3=04. Bob Dylan - Like a Rolling Stone
TTITLE4=05. Cat Stevens - I Love My Dog
TTITLE5=06. Neil Young - Cinnamon Girl
TTITLE6=07. Simon &Garfunkel - The Sounf of Silence
TTITLE7=08. Dolly Parton - Mama Say a Prayer
TTITLE8=09. Creedence - Suzie Q
TTITLE9=10. Guy Mitchell - Heartaches by the Number
TTITLE10=11. The Mamas and The Papas - Straight Shooter
TTITLE11=12. Joan Baez - In the Quiet Morning
TTITLE12=13. Loretta Lynn - Blue Kentucky Girl
TTITLE13=14. Donovan - Hurdy Gurdy Man
TTITLE14=15. Ronnie Mcdowell - Burning Bridges
TTITLE15=16. Tammy Wynette - Stand by Your Man
TTITLE16=17. Creedence - Proud Mary
TTITLE17=18. Skeeter Davis - I Want to See You Too
TTITLE18=19. Johnny Horton - The Electrified Donkey
TTITLE19=20.  Skeeter Davis - The End of the World
EXTD=
EXTT0=
EXTT1=
EXTT2=
EXTT3=
EXTT4=
EXTT5=
EXTT6=
EXTT7=
EXTT8=
EXTT9=
EXTT10=
EXTT11=
EXTT12=
EXTT13=
EXTT14=
EXTT15=
EXTT16=
EXTT17=
EXTT18=
EXTT19=
PLAYORDER=
